<svg xmlns="http://www.w3.org/2000/svg" width="2927.5" height="2549" viewBox="0 0 2927.5 2549"><path fill="#fff" d="M1438,1745.33l283.61-352a38.9,38.9,0,0,0,3.53-43.62l-629.79-1108A38.92,38.92,0,0,0,1061.55,222H75.42c-29.82,0-48.54,32.18-33.81,58.11L274.28,689.63c4.35,7.65,11.5,20.15,15.9,27.77L1464.6,2751.54c15,25.93,52.39,25.93,67.36,0l127-219.9a38.88,38.88,0,0,0,.13-38.66L1485,2186.59c-15.55-27.37,6.17-60.92,37.51-57.93l324.93,31a38.87,38.87,0,0,0,37.37-19.27l115.64-200.3,13.79-23.88h0a38.89,38.89,0,0,0-30-58.16l-519.63-49.6C1433.78,1805.5,1418.59,1769.45,1438,1745.33ZM1124,1551.05,572.63,580.59c-14.87-26.17,4.35-58.59,34.45-58.1l268.09,4.4a38.92,38.92,0,0,1,33.18,19.67l439.12,772.58a38.9,38.9,0,0,1-3.52,43.62l-155.89,193.48A38.89,38.89,0,0,1,1124,1551.05Z" transform="translate(-36.47 -221.98)"/><path fill="#fff" d="M2958.71,280.32,2116.17,1739.64c-15,26-52.59,25.91-67.47-.18L1216.53,280.14c-14.79-25.93,3.93-58.16,33.78-58.16h271.1a38.89,38.89,0,0,1,33.79,19.63l500,876.73c14.91,26.16,52.62,26.18,67.56,0l53.27-93.26a38.88,38.88,0,0,0,.18-38.25l-394.74-707c-14.48-25.93,4.26-57.86,34-57.86h269.71a38.89,38.89,0,0,1,34,19.94l215.73,386.36c14.75,26.42,52.71,26.61,67.73.33l21.91-38.36c14.95-26.15-4.24-58.64-34.37-58.18h0a38.9,38.9,0,0,1-39.49-38.28l-3.63-232.3A38.9,38.9,0,0,1,2385.82,222H2925C2955,222,2973.68,254.39,2958.71,280.32Z" transform="translate(-36.47 -221.98)"/></svg>