<svg xmlns="http://www.w3.org/2000/svg" width="2937.5" height="2559.99" viewBox="0 0 2937.5 2559.99"><path d="M1005.24,30.56,98.44,31.61c-41.87,0-68,45.39-47,81.63l1417.08,2448c21,36.23,73.3,36.17,94.19-.11l162.83-282.76a9.1,9.1,0,0,0,0-9.1L1658.81,2154a9.1,9.1,0,0,1,7.91-13.65l132.66.45a9.1,9.1,0,0,0,8-4.65c68.12-121.72,139.94-241.11,208.25-362.71a9.09,9.09,0,0,0-8.21-13.54c-131,3.9-265.38,5.73-396.42,9.63a9.09,9.09,0,0,1-8.14-13.64l200.46-346.7a9.1,9.1,0,0,0,0-9.11L1013.12,35.1A9.11,9.11,0,0,0,1005.24,30.56Zm370.5,1378.74-66.09,114.34a9.09,9.09,0,0,1-15.75,0l-643.72-1112A9.1,9.1,0,0,1,658.12,398l132.77.86a9.08,9.08,0,0,1,7.81,4.54l577,996.82A9.1,9.1,0,0,1,1375.74,1409.3Z" transform="translate(-44.03 -28.37)" fill="#fff"/><path d="M2974.19,109.89l-867,1505.64a9.09,9.09,0,0,1-15.76,0L1184.89,44a9.1,9.1,0,0,1,7.87-13.64l406-.48a9.1,9.1,0,0,1,7.89,4.55L2096.7,884.05a9.1,9.1,0,0,0,15.77,0l75.2-130.91a9.08,9.08,0,0,0,0-9.09L1782,43.33a9.09,9.09,0,0,1,7.86-13.65l406.3-.46a9.09,9.09,0,0,1,7.89,4.53l191.26,330.41a9.1,9.1,0,0,0,15.76,0l69.81-121.54a9.08,9.08,0,0,0,0-9.09L2370.43,42.65A9.09,9.09,0,0,1,2378.29,29l225.47-.26,186.09-.21L2927,28.37C2968.87,28.32,2995.09,73.61,2974.19,109.89Z" transform="translate(-44.03 -28.37)" fill="#fff"/></svg>