<svg xmlns="http://www.w3.org/2000/svg" width="2852.19" height="2481.27" viewBox="0 0 2852.19 2481.27"><defs><style>.a{fill:#fff;}</style></defs><path class="a" d="M1646,1577.89,1756.23,1380a16.37,16.37,0,0,0-.14-16.19L992.1,47.21a16.38,16.38,0,0,0-14.17-8.16l-890.41.18C55.84,39.24,36.05,73.54,51.9,101L1437.27,2499.38c15.84,27.43,55.44,27.42,71.28,0l165.06-286a16.37,16.37,0,0,0,0-16.37l-131-226.73c-7.45-12.89,4.77-28.22,19-23.84l213.41,65.68a16.38,16.38,0,0,0,19-7.46l166.37-288.3a16.37,16.37,0,0,0-9.36-23.83l-295.54-91A16.37,16.37,0,0,1,1646,1577.89Zm-384.61-94.53L646.08,418.06a16.38,16.38,0,0,1,14.3-24.57l110.82.82a16.37,16.37,0,0,1,14,8.15l559.92,965a16.35,16.35,0,0,1,.15,16.18l-55.4,99.51A16.38,16.38,0,0,1,1261.42,1483.36Z" transform="translate(-46.32 -38.67)"/><path class="a" d="M2892.94,100.39,2051.41,1558.65a16.37,16.37,0,0,1-28.37,0L1162.49,63.55A16.38,16.38,0,0,1,1176.68,39L1551.05,39a16.37,16.37,0,0,1,14.2,8.2l463.54,805.34a16.37,16.37,0,0,0,28.38,0l63.95-111.08a16.37,16.37,0,0,0,0-16.36L1739,63.46a16.37,16.37,0,0,1,14.17-24.56l374.68-.08A16.36,16.36,0,0,1,2142,47l175.55,303.92a16.38,16.38,0,0,0,28.37,0l58.75-102.06a16.37,16.37,0,0,0,0-16.36L2306.94,63.34a16.38,16.38,0,0,1,14.18-24.57l204.5,0,179.63,0,152,0C2889,38.67,2908.77,73,2892.94,100.39Z" transform="translate(-46.32 -38.67)"/></svg>