<svg xmlns="http://www.w3.org/2000/svg" width="2920.32" height="2766.51" viewBox="0 0 2920.32 2766.51"><path fill="#fff" d="M1127.94,133.47q30.72,16.38,47.28,45.81t16.56,67.33q0,37.54-16.74,67t-47.47,46.18c-20.48,11.16-69,16.5-69,16.5-1.19.13-3.13.24-4.32.24H955.88a2.16,2.16,0,0,1-2.16-2.16V119.26a2.16,2.16,0,0,1,2.16-2.16h98.33c1.19,0,3.13.1,4.32.23C1058.53,117.33,1107.46,122.56,1127.94,133.47Zm-27.41,162.08q18-17.3,18-48.94,0-32-18-49.48C1088.51,185.48,1053,180,1053,180a34.29,34.29,0,0,0-4.3-.33H1028a2.17,2.17,0,0,0-2.17,2.16V310.68a2.18,2.18,0,0,0,2.17,2.17h20.69a34.29,34.29,0,0,0,4.3-.33S1088.51,307.08,1100.53,295.55Z" transform="translate(-40.06 -113.05)"/><path fill="#fff" d="M1291.08,174.87a2.17,2.17,0,0,0-2.17,2.16v38a2.17,2.17,0,0,0,2.17,2.17h78.45a2.17,2.17,0,0,1,2.17,2.16v50.5a2.17,2.17,0,0,1-2.17,2.16h-78.45a2.18,2.18,0,0,0-2.17,2.17v42.4a2.17,2.17,0,0,0,2.17,2.16h89.49a2.18,2.18,0,0,1,2.17,2.17v53.44a2.17,2.17,0,0,1-2.17,2.16H1219a2.17,2.17,0,0,1-2.17-2.16V119.26a2.17,2.17,0,0,1,2.17-2.16h161.61a2.17,2.17,0,0,1,2.17,2.16V172.7a2.18,2.18,0,0,1-2.17,2.17Z" transform="translate(-40.06 -113.05)"/><path fill="#fff" d="M1661.31,117.1a1.45,1.45,0,0,1,1.46,2l-88,255.31a3.25,3.25,0,0,1-2.87,2.05h-88a3.27,3.27,0,0,1-2.88-2.05l-88.36-255.31a1.45,1.45,0,0,1,1.46-2H1467a3.15,3.15,0,0,1,2.81,2.06l57.57,183.16c.36,1.13.94,1.13,1.3,0l57.21-183.16a3.14,3.14,0,0,1,2.81-2.06Z" transform="translate(-40.06 -113.05)"/><path fill="#fff" d="M1752.84,174.87a2.16,2.16,0,0,0-2.16,2.16v38a2.17,2.17,0,0,0,2.16,2.17h78.46a2.17,2.17,0,0,1,2.17,2.16v50.5a2.17,2.17,0,0,1-2.17,2.16h-78.46a2.17,2.17,0,0,0-2.16,2.17v42.4a2.16,2.16,0,0,0,2.16,2.16h89.5a2.17,2.17,0,0,1,2.16,2.17v53.44a2.16,2.16,0,0,1-2.16,2.16H1680.73a2.17,2.17,0,0,1-2.17-2.16V119.26a2.17,2.17,0,0,1,2.17-2.16h161.61a2.16,2.16,0,0,1,2.16,2.16V172.7a2.17,2.17,0,0,1-2.16,2.17Z" transform="translate(-40.06 -113.05)"/><path fill="#fff" d="M1945,319.14a2.17,2.17,0,0,0,2.16,2.17h76.25a2.17,2.17,0,0,1,2.17,2.16v50.87a2.17,2.17,0,0,1-2.17,2.16H1875a2.17,2.17,0,0,1-2.17-2.16V119.26a2.17,2.17,0,0,1,2.17-2.16h67.78a2.17,2.17,0,0,1,2.17,2.16Z" transform="translate(-40.06 -113.05)"/><path fill="#fff" d="M2103.53,362a127.46,127.46,0,0,1-48.38-47.47q-17.85-30.36-17.85-68.62t17.85-68.62A126,126,0,0,1,2103.53,130q30.54-16.92,67-16.93,36.8,0,67.15,16.93a125.18,125.18,0,0,1,48,47.28q17.65,30.35,17.66,68.62t-17.66,68.62a126.29,126.29,0,0,1-48.2,47.47q-30.55,17.1-67,17.11T2103.53,362Zm110.57-67.89q16-18,16-48.2,0-30.91-16-48.75t-43.6-17.85q-28,0-43.78,17.85t-15.83,48.75q0,30.54,15.83,48.38t43.78,17.85Q2198.1,312.11,2214.1,294.08Z" transform="translate(-40.06 -113.05)"/><path fill="#fff" d="M2522.44,246.43q-10.86,19.32-32.75,30.91c-14.6,7.72-51.38,11.38-51.38,11.38-1.19.11-3.13.21-4.32.21h-31.36a2.17,2.17,0,0,0-2.17,2.16v83.25a2.16,2.16,0,0,1-2.16,2.16h-67.79a2.16,2.16,0,0,1-2.16-2.16V119.26a2.16,2.16,0,0,1,2.16-2.16H2434c1.19,0,3.13.09,4.32.2,0,0,36.42,3.48,51,10.84s25.57,17.54,32.93,30.54,11,28,11,44.89A86,86,0,0,1,2522.44,246.43Zm-62.74-42.86c0-18.89-28.47-27.7-28.47-27.7a17.32,17.32,0,0,0-4.23-.64h-24.37a2.18,2.18,0,0,0-2.17,2.17v52a2.17,2.17,0,0,0,2.17,2.17H2427a17.8,17.8,0,0,0,4.23-.63S2459.7,222.21,2459.7,203.57Z" transform="translate(-40.06 -113.05)"/><path fill="#fff" d="M2629.28,174.87a2.17,2.17,0,0,0-2.17,2.16v38a2.17,2.17,0,0,0,2.17,2.17h78.46a2.16,2.16,0,0,1,2.16,2.16v50.5a2.16,2.16,0,0,1-2.16,2.16h-78.46a2.18,2.18,0,0,0-2.17,2.17v42.4a2.17,2.17,0,0,0,2.17,2.16h89.5a2.17,2.17,0,0,1,2.16,2.17v53.44a2.16,2.16,0,0,1-2.16,2.16H2557.16a2.16,2.16,0,0,1-2.16-2.16V119.26a2.16,2.16,0,0,1,2.16-2.16h161.62a2.16,2.16,0,0,1,2.16,2.16V172.7a2.17,2.17,0,0,1-2.16,2.17Z" transform="translate(-40.06 -113.05)"/><path fill="#fff" d="M2882.79,376.5a4,4,0,0,1-3.19-1.91l-49.46-91.85a4,4,0,0,0-3.19-1.91h-3.4a2.18,2.18,0,0,0-2.17,2.17v91.34a2.16,2.16,0,0,1-2.16,2.16h-67.79a2.16,2.16,0,0,1-2.16-2.16V119.26a2.16,2.16,0,0,1,2.16-2.16H2860.8c1.19,0,3.13.09,4.32.2,0,0,36.35,3.42,50.83,10.65s25.38,17.17,32.74,29.81,11,26.8,11,42.49q0,26.5-14.53,46.55c-9.69,13.37-40.53,27.61-40.53,27.61a2,2,0,0,0-.89,2.78l56.34,97.44c.6,1,.11,1.87-1.08,1.87Zm-61.41-147.14a2.17,2.17,0,0,0,2.17,2.17h31.36a38.83,38.83,0,0,0,4.31-.29s15-2,19.93-6.7,7.36-11.41,7.36-20.24q0-12.51-7.54-19.68c-5-4.79-19.75-6.88-19.75-6.88a38.84,38.84,0,0,0-4.31-.3h-31.36a2.18,2.18,0,0,0-2.17,2.17Z" transform="translate(-40.06 -113.05)"/><path fill="#fff" d="M413.48,117.1a1.62,1.62,0,0,1,1.65,2.1L352.51,374.4a2.92,2.92,0,0,1-2.68,2.1H265.48a2.84,2.84,0,0,1-2.64-2.11L228.1,219.66c-.26-1.16-.69-1.16-1,0L191.68,374.39A2.85,2.85,0,0,1,189,376.5H104.69a2.91,2.91,0,0,1-2.68-2.1L40.11,119.2a1.63,1.63,0,0,1,1.66-2.1h73.67a2.66,2.66,0,0,1,2.53,2.13l29.45,173.08c.2,1.18.58,1.19.85,0l39.87-173.13a2.85,2.85,0,0,1,2.65-2.11h74.78a2.84,2.84,0,0,1,2.64,2.11L307,290.87c.27,1.16.64,1.15.85,0l29.44-171.61a2.67,2.67,0,0,1,2.53-2.13Z" transform="translate(-40.06 -113.05)"/><path fill="#fff" d="M521.94,174.87a2.17,2.17,0,0,0-2.17,2.16v38a2.17,2.17,0,0,0,2.17,2.17H600.4a2.16,2.16,0,0,1,2.16,2.16v50.5A2.16,2.16,0,0,1,600.4,272H521.94a2.18,2.18,0,0,0-2.17,2.17v42.4a2.17,2.17,0,0,0,2.17,2.16h89.49a2.18,2.18,0,0,1,2.17,2.17v53.44a2.17,2.17,0,0,1-2.17,2.16H449.82a2.17,2.17,0,0,1-2.17-2.16V119.26a2.17,2.17,0,0,1,2.17-2.16H611.43a2.17,2.17,0,0,1,2.17,2.16V172.7a2.18,2.18,0,0,1-2.17,2.17Z" transform="translate(-40.06 -113.05)"/><path fill="#fff" d="M852.57,265.93A63.77,63.77,0,0,1,866,305.85q0,33.12-22.82,51.88c-15.21,12.52-61.87,18.5-61.87,18.5a41.38,41.38,0,0,1-4.31.27H652.92a2.16,2.16,0,0,1-2.16-2.16V119.26a2.16,2.16,0,0,1,2.16-2.16H773c1.19,0,3.13.12,4.31.26,0,0,45.13,5.62,60.22,17.4s22.63,28.33,22.63,49.67q0,22.81-12,38.08c-8,10.19-29.85,19.91-29.85,19.91-1.09.49-1.07,1.25,0,1.69C818.34,244.11,843.62,254.28,852.57,265.93Zm-129.7-48a2.17,2.17,0,0,0,2.17,2.16h32.1a19.67,19.67,0,0,0,4.25-.57s25.14-6.91,25.14-21.87c0-15.46-25.15-22.59-25.15-22.59a18.37,18.37,0,0,0-4.24-.59H725a2.17,2.17,0,0,0-2.17,2.16Zm69.18,77.59q0-11.78-7.18-18c-4.78-4.17-18.27-6-18.27-6a41.39,41.39,0,0,0-4.31-.28H725a2.17,2.17,0,0,0-2.17,2.16V316.2a2.17,2.17,0,0,0,2.17,2.16h37.62a18.91,18.91,0,0,0,4.24-.58S792.05,310.76,792.05,295.55Z" transform="translate(-40.06 -113.05)"/><path fill="#fff" d="M1683,1941l109.8-197.16a16.33,16.33,0,0,0-.14-16.13L1031.48,416a16.31,16.31,0,0,0-14.11-8.13L130.25,408c-31.56,0-51.28,34.17-35.49,61.5L1475,2859.07c15.79,27.33,55.24,27.32,71,0l164.45-285a16.3,16.3,0,0,0,0-16.31L1580,2331.87c-7.42-12.84,4.76-28.11,18.93-23.75l212.61,65.44a16.3,16.3,0,0,0,18.93-7.43l165.76-287.24a16.31,16.31,0,0,0-9.33-23.74l-294.44-90.64A16.31,16.31,0,0,1,1683,1941Zm-383.19-94.18L686.74,785.43A16.32,16.32,0,0,1,701,761l110.41.81a16.3,16.3,0,0,1,14,8.13l557.86,961.4a16.33,16.33,0,0,1,.14,16.13l-55.2,99.15A16.31,16.31,0,0,1,1299.81,1846.8Z" transform="translate(-40.06 -113.05)"/><path fill="#fff" d="M2925.31,468.94,2086.89,1921.81a16.31,16.31,0,0,1-28.27,0L1201.25,432.24a16.31,16.31,0,0,1,14.14-24.45l373-.07a16.32,16.32,0,0,1,14.14,8.18l461.83,802.36a16.31,16.31,0,0,0,28.27,0l63.71-110.67a16.28,16.28,0,0,0,0-16.3L1775.58,432.15a16.32,16.32,0,0,1,14.13-24.48L2163,407.6a16.3,16.3,0,0,1,14.13,8.15L2352,718.55a16.31,16.31,0,0,0,28.26,0l58.53-101.68a16.31,16.31,0,0,0,0-16.3L2341.47,432a16.31,16.31,0,0,1,14.13-24.47l203.74,0,179,0,151.48,0C2921.35,407.44,2941.08,441.61,2925.31,468.94Z" transform="translate(-40.06 -113.05)"/></svg>