<svg xmlns="http://www.w3.org/2000/svg" width="2856.48" height="2624.32" viewBox="0 0 2856.48 2624.32"><defs><style>.a{font-size:153.73px;font-family:Poppins-Bold, Poppins;font-weight:700;}.b{font-size:153.73px;font-family:Poppins-Regular, Poppins;}.c{letter-spacing:0.28em;}.d{letter-spacing:0.28em;}.e{letter-spacing:0.29em;}.f{letter-spacing:0.28em;}</style></defs><path d="M11552.35,220.25l-875.1,1c-40.41.05-65.61,43.81-45.37,78.78l1367.55,2362.42c20.24,35,70.74,34.91,90.9-.1l157.14-272.88a8.8,8.8,0,0,0,0-8.78l-64.38-111.2a8.78,8.78,0,0,1,7.63-13.18l128,.43a8.79,8.79,0,0,0,7.69-4.49c65.74-117.46,135-232.68,201-350a8.78,8.78,0,0,0-7.92-13.07c-126.46,3.77-256.11,5.54-382.57,9.3a8.77,8.77,0,0,1-7.86-13.16l193.46-334.59a8.74,8.74,0,0,0,0-8.79L11560,224.63A8.79,8.79,0,0,0,11552.35,220.25Zm357.56,1330.55-63.78,110.34a8.78,8.78,0,0,1-15.2,0L11209.71,588a8.78,8.78,0,0,1,7.65-13.18l128.14.83A8.77,8.77,0,0,1,11353,580l556.86,962A8.77,8.77,0,0,1,11909.91,1550.8Z" transform="translate(-10612.2 -64.33)" fill="#fff"/><path d="M13452.49,296.81l-836.68,1453a8.79,8.79,0,0,1-15.22,0L11725.73,233.22a8.78,8.78,0,0,1,7.59-13.17l391.77-.45a8.78,8.78,0,0,1,7.62,4.39l473,819.92a8.77,8.77,0,0,0,15.21,0l72.58-126.33a8.78,8.78,0,0,0,0-8.77L12302,232.58a8.78,8.78,0,0,1,7.59-13.18l392.1-.45a8.79,8.79,0,0,1,7.61,4.38l184.58,318.86a8.78,8.78,0,0,0,15.21,0l67.37-117.29a8.78,8.78,0,0,0,0-8.77l-106.61-184.18a8.78,8.78,0,0,1,7.58-13.18l217.59-.24,179.59-.21,132.36-.15C13447.35,218.09,13472.65,261.8,13452.49,296.81Z" transform="translate(-10612.2 -64.33)" fill="#fff"/><text fill="#fff" class="a"  transform="translate(0 131.05)">RAB WINTER</text><text fill="#fff" class="b" transform="translate(1687.56 131.82)"><tspan class="c">DE</tspan><tspan class="d" x="275.17" y="0">V</tspan><tspan class="e" x="422.74" y="0">E</tspan><tspan class="f" x="545.42" y="0">LO</tspan><tspan class="c" x="819.97" y="0">PE</tspan><tspan x="1075.46" y="0">R</tspan></text><text class="b" fill="#fff" transform="translate(1109.16 131.82)"><tspan class="e">WE</tspan><tspan x="316.52" y="0">B</tspan></text></svg>