<svg xmlns="http://www.w3.org/2000/svg" width="4959.36" height="3028.42" viewBox="0 0 4959.36 3028.42"><defs><style>.a,.b,.c,.d{fill:#fff;}.b,.c{font-size:156.52px;}.b,.c,.d{font-family:Poppins-Bold, Poppins;font-weight:700;}.c{letter-spacing:0.25em;}.d{font-size:156.53px;letter-spacing:0.35em;}</style></defs><path class="a" d="M1017.86,165.85l-891,1c-41.14,0-66.8,44.61-46.19,80.22L1473.08,2652.51c20.61,35.61,72,35.55,92.56-.1l160-277.85a9,9,0,0,0,0-8.94l-65.54-113.23a8.93,8.93,0,0,1,7.76-13.41c3.15-3.1,140.6,6.31,138.18-4.13,66.93-119.6,137.51-236.92,204.63-356.4a8.94,8.94,0,0,0-8.07-13.31c-128.75,3.83-260.76,5.64-389.53,9.47a8.94,8.94,0,0,1-8-13.41l197-340.67C1803.5,1504.13,1031.63,173.48,1017.86,165.85Zm364.07,1354.77L1317,1633a8.93,8.93,0,0,1-15.47,0L669,540.29a8.94,8.94,0,0,1,7.79-13.42l130.47.84C821,534.19,1382.94,1505.28,1381.93,1520.62Z" transform="translate(-60.6 349.24)"/><path class="a" d="M2952.59,243.8c-15.25.28-841.23,1511.46-867.37,1479.47,0,0-890.83-1544.22-890.83-1544.22a8.94,8.94,0,0,1,7.74-13.4l398.9-.47a8.94,8.94,0,0,1,7.75,4.47l481.57,834.85a8.94,8.94,0,0,0,15.49,0c.83-4.29,83.27-135.46,73.88-137.56L1781.16,178.4a8.94,8.94,0,0,1,7.72-13.42l399.24-.45a8.91,8.91,0,0,1,7.75,4.46L2383.8,493.64a8.94,8.94,0,0,0,15.49,0l68.6-119.43a8.93,8.93,0,0,0,0-8.93L2359.32,177.73a8.94,8.94,0,0,1,7.72-13.42c99.76.27,305.35-.62,404.4-.46l134.78-.15C2947.35,163.65,2973.12,208.15,2952.59,243.8Z" transform="translate(-60.6 349.24)"/><text class="b" transform="translate(0 498.11)">RAB WINTER</text><text class="c" transform="translate(1714.88 498.11)">DEVELOPER</text><text class="d" transform="translate(1097.88 498.11)">WEB</text><text x="-60.6" y="349.24"/></svg>