<svg xmlns="http://www.w3.org/2000/svg" width="2931.47" height="2695.66" viewBox="0 0 2931.47 2695.66"><path d="M919.94,33.23l-835.55,1c-38.57,0-62.63,41.83-43.31,75.22L1346.81,2365c19.33,33.39,67.55,33.33,86.8-.1l150-260.54a8.39,8.39,0,0,0,0-8.38l-61.46-106.18a8.38,8.38,0,0,1,7.28-12.58l122.23.41a8.38,8.38,0,0,0,7.34-4.28c62.77-112.15,129-222.17,191.89-334.21a8.39,8.39,0,0,0-7.56-12.48c-120.74,3.6-244.53,5.29-365.28,8.88a8.38,8.38,0,0,1-7.5-12.57l184.71-319.46a8.36,8.36,0,0,0,0-8.39L927.21,37.41A8.39,8.39,0,0,0,919.94,33.23Zm341.4,1270.41L1200.44,1409a8.38,8.38,0,0,1-14.51,0L592.79,384.35a8.38,8.38,0,0,1,7.31-12.58l122.34.79a8.39,8.39,0,0,1,7.2,4.18l531.69,918.5A8.38,8.38,0,0,1,1261.34,1303.64Z" transform="translate(-34.27 -31.21)"/><path d="M2734.19,106.33,1935.33,1493.66a8.39,8.39,0,0,1-14.53,0L1085.48,45.61A8.38,8.38,0,0,1,1092.73,33l374.07-.44a8.37,8.37,0,0,1,7.26,4.2l451.59,782.85a8.37,8.37,0,0,0,14.52,0L2009.47,699a8.37,8.37,0,0,0,0-8.37L1635.71,45A8.38,8.38,0,0,1,1643,32.41L2017.33,32a8.36,8.36,0,0,1,7.26,4.18l176.24,304.44a8.38,8.38,0,0,0,14.52,0l64.33-112a8.37,8.37,0,0,0,0-8.37L2177.87,44.37a8.37,8.37,0,0,1,7.24-12.58l207.75-.24,171.47-.2,126.38-.14C2729.28,31.16,2753.44,72.9,2734.19,106.33Z" transform="translate(-34.27 -31.21)"/><path d="M1513.69,2305.68q24.75-8.1,43.26,15.32a113.53,113.53,0,0,1,8.66,13.87q13.64,26,15.43,64.37,1.7,36.12-12.13,75.54a5.79,5.79,0,0,0,3.66,7.07l88.67,34.31c3.36,1.3,4.92,5.08,3.28,7.93l-27.6,47.91a5.5,5.5,0,0,1-7,2.05l-86-36.46a5.52,5.52,0,0,0-7,2l-17.68,30.7a5.19,5.19,0,0,0,0,5l54,102.26a5.22,5.22,0,0,1,0,5l-21.26,36.91c-2.14,3.71-8,3.26-10.1-.78L1406.48,2462a5.22,5.22,0,0,1,0-5l57-98.86Q1489,2313.78,1513.69,2305.68Zm17,68.23q-10.62-13.42-23.11-9.16t-26.1,27.89l-29.24,50.76a5.19,5.19,0,0,0,0,5l42.14,79.88c2.13,4,8,4.49,10.1.78l25.57-44.39q15.56-27,17-53.25t-9.94-47.22A59.14,59.14,0,0,0,1530.74,2373.91Z" transform="translate(-34.27 -31.21)"/><path d="M1513.69,2305.68l1.48,4.52a34.8,34.8,0,0,1,10.83-1.85,28.13,28.13,0,0,1,14,3.74,45.91,45.91,0,0,1,13.22,11.86,60,60,0,0,1,3.47,5.07c1.38,2.22,3,4.95,4.76,8.16l4.16-2.31-4.21,2.21c8.68,16.54,13.71,37.3,14.89,62.39q.18,3.83.18,7.7,0,31.59-12,66h0a9.67,9.67,0,0,0-.55,3.21,10.38,10.38,0,0,0,1.95,6,11.18,11.18,0,0,0,5,3.89l88.67,34.3a1.53,1.53,0,0,1,.7.54,1,1,0,0,1,.19.49l0,.1h0l-27.6,47.91-.09.07a.78.78,0,0,1-.39.08,1.41,1.41,0,0,1-.55-.12l-86-36.45a11,11,0,0,0-4.26-.87,10.28,10.28,0,0,0-4.93,1.24,9.7,9.7,0,0,0-3.79,3.68L1515.08,2568a9.79,9.79,0,0,0-1.29,4.85,10.34,10.34,0,0,0,1.2,4.79l54,102.26a.81.81,0,0,1,.1.35l0,.1h0l-21.26,36.9-.08.08a.79.79,0,0,1-.38.08,1.56,1.56,0,0,1-.76-.21,1.32,1.32,0,0,1-.55-.57l-135.33-256.81a.78.78,0,0,1-.1-.34l0-.1,57-98.87c8.37-14.53,16.63-26,24.64-34.33s15.73-13.57,23-15.93l-1.48-4.52-1.48-4.52c-9.24,3-18.14,9.27-26.88,18.38s-17.37,21.17-26,36.18l-56.94,98.86a9.56,9.56,0,0,0-1.29,4.85,10.29,10.29,0,0,0,1.19,4.78L1537.61,2721a11,11,0,0,0,9.72,5.85,10.23,10.23,0,0,0,4.83-1.18A9.71,9.71,0,0,0,1556,2722l21.26-36.91h0a9.74,9.74,0,0,0,1.28-4.84,10.19,10.19,0,0,0-1.2-4.79l-54-102.26a.87.87,0,0,1-.11-.35l0-.1L1541,2542l.09-.07a.79.79,0,0,1,.39-.09,1.37,1.37,0,0,1,.55.12l86,36.45a10.84,10.84,0,0,0,4.26.88,10.28,10.28,0,0,0,4.93-1.24,9.7,9.7,0,0,0,3.79-3.68l27.6-47.92h0a9.55,9.55,0,0,0,1.29-4.84,10.42,10.42,0,0,0-1.91-6,11.09,11.09,0,0,0-5.06-3.94l-88.67-34.31a1.53,1.53,0,0,1-.71-.54.85.85,0,0,1-.19-.46v-.06h0q12.54-35.76,12.58-69.18c0-2.73-.06-5.44-.19-8.15-1.22-26.09-6.47-48.24-16-66.36l0,0,0-.06c-1.85-3.32-3.51-6.17-5-8.58a67.6,67.6,0,0,0-4.08-5.93,55.17,55.17,0,0,0-16-14.25,37.56,37.56,0,0,0-18.66-5,44.14,44.14,0,0,0-13.79,2.32Zm17,68.23,3.73-2.95a35.79,35.79,0,0,0-9.65-8.79,22,22,0,0,0-11.3-3.2,22.55,22.55,0,0,0-7.43,1.28h0c-5.19,1.79-10,5.35-14.7,10.36a106.44,106.44,0,0,0-14,19.66L1448.17,2441a9.68,9.68,0,0,0-1.29,4.85,10.34,10.34,0,0,0,1.2,4.79l42.15,79.88a10.81,10.81,0,0,0,4.22,4.38,11,11,0,0,0,5.5,1.47,10.23,10.23,0,0,0,4.83-1.18,9.71,9.71,0,0,0,3.87-3.74l25.57-44.39c10.67-18.51,16.63-37,17.64-55.36.12-2.06.17-4.1.17-6.13a89.9,89.9,0,0,0-10.68-43.62l-4.18,2.27,4.26-2.13a64.64,64.64,0,0,0-7-11.15l-3.73,2.95-3.73,3a54.77,54.77,0,0,1,5.91,9.5l0,.07,0,.07c6.34,11.69,9.52,24.62,9.53,39.08,0,1.85,0,3.71-.16,5.61-.92,16.64-6.31,33.65-16.38,51.13l-25.57,44.39-.08.08a.79.79,0,0,1-.38.08,1.53,1.53,0,0,1-.76-.21,1.32,1.32,0,0,1-.55-.57l-42.15-79.88a.81.81,0,0,1-.1-.35l0-.1,29.24-50.75a98.1,98.1,0,0,1,12.68-17.91c4-4.29,7.7-6.8,10.84-7.86h0a13.42,13.42,0,0,1,4.35-.77,12.54,12.54,0,0,1,6.46,1.88,26.43,26.43,0,0,1,7,6.51Z" transform="translate(-34.27 -31.21)"/><path d="M1770.14,2235.48l-66.59,115.61a5,5,0,0,0-.53,3.62l16,72.1a5,5,0,0,1-.53,3.62l-20.6,35.77c-2.49,4.31-9.53,2.85-10.63-2.21l-77.79-357.45a5,5,0,0,1,.54-3.6l28-48.56c1.65-2.86,5.73-3.4,8.53-1.13l193.36,156.81a5.49,5.49,0,0,1,1.57,6.94l-23.77,41.25c-1.65,2.87-5.76,3.4-8.56,1.1l-30.38-25C1775.91,2232.08,1771.8,2232.61,1770.14,2235.48ZM1744,2205.42l-78.45-64.75c-4.2-3.47-10.23-.34-9.1,4.72l32.3,144.87c1.12,5,8.14,6.49,10.62,2.19l46.15-80.13A5.46,5.46,0,0,0,1744,2205.42Z" transform="translate(-34.27 -31.21)"/><path d="M1770.14,2235.48l-4.12-2.37-66.59,115.61a9.68,9.68,0,0,0-1.29,4.85,10.27,10.27,0,0,0,.24,2.19l16,72.08,0,.12,0,.1h0l-20.6,35.76-.09.1a.72.72,0,0,1-.34.06,1.68,1.68,0,0,1-1-.32,1.09,1.09,0,0,1-.46-.68l-77.79-357.45h0v-.11l0-.09h0l28-48.56.08-.07a.75.75,0,0,1,.4-.08,1.45,1.45,0,0,1,.93.35l193.37,156.81a1,1,0,0,1,.45.77l0,.1h0l-23.76,41.26-.08.07a1,1,0,0,1-.4.08,1.51,1.51,0,0,1-.94-.36l-30.38-25a11,11,0,0,0-7-2.52,10.31,10.31,0,0,0-4.88,1.21,9.63,9.63,0,0,0-3.84,3.71l4.12,2.37,4.13,2.38.08-.07a.76.76,0,0,1,.39-.09,1.51,1.51,0,0,1,1,.36l30.38,25a11,11,0,0,0,7,2.53,10.56,10.56,0,0,0,4.89-1.21,9.74,9.74,0,0,0,3.83-3.71l23.77-41.26h0a9.73,9.73,0,0,0,1.29-4.84,10.58,10.58,0,0,0-4-8.16l-193.36-156.81a11.05,11.05,0,0,0-6.93-2.48,10.32,10.32,0,0,0-4.89,1.21,9.74,9.74,0,0,0-3.83,3.71l-28,48.56h0a9.69,9.69,0,0,0-1.06,7h0L1682.59,2465a10.65,10.65,0,0,0,4.12,6.33,11.27,11.27,0,0,0,6.61,2.17,10.19,10.19,0,0,0,4.8-1.18,9.67,9.67,0,0,0,3.87-3.75l20.6-35.76h0a9.73,9.73,0,0,0,1.28-4.84,10,10,0,0,0-.24-2.18l-16-72.09v-.12l0-.11,66.6-115.6ZM1744,2205.42l3-3.67L1668.55,2137a10.92,10.92,0,0,0-7-2.55,10.28,10.28,0,0,0-6.88,2.6,9.52,9.52,0,0,0-2.3,3.12,9.28,9.28,0,0,0-.87,4,10.23,10.23,0,0,0,.25,2.26l0,.15,32.27,144.72a10.66,10.66,0,0,0,4.12,6.29,11.19,11.19,0,0,0,6.59,2.15,10.18,10.18,0,0,0,4.8-1.17,9.74,9.74,0,0,0,3.87-3.75l46.15-80.12a9.69,9.69,0,0,0,1.29-4.85,10.52,10.52,0,0,0-3.9-8.1l-3,3.67-3,3.67a1.1,1.1,0,0,1,.45.76l0,.1-46.15,80.12-.09.1a.75.75,0,0,1-.34.06,1.7,1.7,0,0,1-1-.32,1.13,1.13,0,0,1-.46-.68l-32.3-144.88h0l0-.17v0H1661l0,0v0H1661l0,0,.14-.1a.92.92,0,0,1,.41-.09,1.39,1.39,0,0,1,.91.38l78.45,64.75Z" transform="translate(-34.27 -31.21)"/><path d="M1896.46,1813.13a184,184,0,0,1-4,40.26c-1,4.75,4.7,8.6,8.93,6.1a33.28,33.28,0,0,1,16.35-4.81q16.92-.48,30,16.08a62.9,62.9,0,0,1,6.92,11q10.9,20.36,12.89,48.4t-5.69,59.53a230,230,0,0,1-24.46,60.62L1875,2158.78c-2.14,3.71-8,3.26-10.1-.78l-135.33-256.81a5.17,5.17,0,0,1,0-5l63-109.42q23.1-40.08,45.5-48.59t38.45,11.8a73.6,73.6,0,0,1,7.17,11.26Q1896.06,1784.18,1896.46,1813.13Zm22.88,104.06q-10.12-12.81-23.35-7.64t-25.37,26.26l-35.07,60.88a5.19,5.19,0,0,0,0,5l38.92,73.64c2.13,4,8,4.48,10.09.77l32.38-56.22q14.1-24.47,16.18-49.57t-8.59-45.13A82.57,82.57,0,0,0,1919.34,1917.19ZM1853.75,1808q-9.63-12.18-21.63-7.66t-23.91,25.19l-32.88,57.09a5.19,5.19,0,0,0,0,5L1811,1955c2.14,4,8,4.47,10.09.76l29.23-50.74q13.61-23.62,15.82-47.46t-7.71-42.21A65.74,65.74,0,0,0,1853.75,1808Z" transform="translate(-34.27 -31.21)"/><path d="M1896.46,1813.13l-4.75.06c0,.79,0,1.59,0,2.38a180.4,180.4,0,0,1-3.88,36.85h0a10.29,10.29,0,0,0-.21,2.06,10.07,10.07,0,0,0,1,4.31,11.13,11.13,0,0,0,9.93,6.24,10.37,10.37,0,0,0,5.31-1.45,28.61,28.61,0,0,1,14.06-4.15h.82a26.63,26.63,0,0,1,13.13,3.43,41.35,41.35,0,0,1,12.2,10.86,58.35,58.35,0,0,1,6.41,10.12l0,.06,0,.06c6.89,12.87,11,28.32,12.34,46.49q.39,5.61.4,11.35a197.11,197.11,0,0,1-6,46.73,225.33,225.33,0,0,1-24,59.36l-62.51,108.53-.08.08a1,1,0,0,1-.38.07,1.56,1.56,0,0,1-.76-.21,1.35,1.35,0,0,1-.55-.56L1733.73,1899a.78.78,0,0,1-.1-.34l0-.1,63-109.41c7.57-13.14,15-23.59,22.27-31.32s14.24-12.72,20.79-15.2h0a31,31,0,0,1,11-2.2,23,23,0,0,1,11.38,3,36.67,36.67,0,0,1,10.68,9.52,68.51,68.51,0,0,1,6.7,10.53l0,0c7.86,14.59,12,31.08,12.22,49.72l4.75-.06,4.76-.07c-.27-20-4.71-38.07-13.36-54.1l0,0a78.32,78.32,0,0,0-7.65-12,45.85,45.85,0,0,0-13.53-11.94,32.51,32.51,0,0,0-16-4.17,40.42,40.42,0,0,0-14.35,2.81h0c-8.38,3.19-16.44,9.14-24.36,17.59s-15.74,19.48-23.57,33.07L1725.26,1894l.15-.26a9.58,9.58,0,0,0-1.29,4.85,10.26,10.26,0,0,0,1.19,4.78l135.33,256.81a11,11,0,0,0,9.73,5.85,10.23,10.23,0,0,0,4.83-1.18,9.62,9.62,0,0,0,3.87-3.73l62.52-108.53a235.18,235.18,0,0,0,25-61.86,206.39,206.39,0,0,0,6.24-49q0-6.07-.42-12c-1.36-19.22-5.8-36-13.45-50.31l-4.19,2.25,4.26-2.13a68.82,68.82,0,0,0-7.45-11.77,50.94,50.94,0,0,0-15.06-13.28,36.1,36.1,0,0,0-17.74-4.62h-1.08a38.33,38.33,0,0,0-18.65,5.47.84.84,0,0,1-.46.13,1.66,1.66,0,0,1-1-.45,1.21,1.21,0,0,1-.29-.37l-.06-.22,0-.12h0a190.48,190.48,0,0,0,4.08-38.79c0-.84,0-1.67,0-2.51Zm22.88,104.06,3.73-3a31.71,31.71,0,0,0-9-8,21.57,21.57,0,0,0-10.75-2.9,24.78,24.78,0,0,0-9.08,1.81,41.81,41.81,0,0,0-14.64,10.27,91.56,91.56,0,0,0-13.12,18l-35.07,60.88a9.68,9.68,0,0,0-1.29,4.85,10.27,10.27,0,0,0,1.21,4.8l38.91,73.63a11,11,0,0,0,9.72,5.84,10.34,10.34,0,0,0,4.83-1.18,9.71,9.71,0,0,0,3.87-3.74l32.38-56.21c9.7-16.83,15.35-34.06,16.8-51.55q.35-4.27.35-8.43a82.5,82.5,0,0,0-9.48-39.33l-.06-.12-.05-.08q-1.75-3-3.12-5.08c-.92-1.41-1.7-2.54-2.43-3.47l-3.73,3-3.73,3c.42.53,1.08,1.47,1.9,2.74s1.8,2.86,2.93,4.77l4.09-2.43-4.2,2.23a73,73,0,0,1,8.37,34.87c0,2.5-.11,5-.33,7.64-1.32,16-6.45,31.79-15.55,47.59l-32.38,56.21-.08.08a.79.79,0,0,1-.38.08,1.56,1.56,0,0,1-.76-.21,1.32,1.32,0,0,1-.55-.57l-38.92-73.63h0a.75.75,0,0,1-.1-.34l0-.09,35.07-60.89a82.94,82.94,0,0,1,11.72-16.18,32.53,32.53,0,0,1,11.26-8,15.34,15.34,0,0,1,5.62-1.16,11.9,11.9,0,0,1,6,1.66,22.14,22.14,0,0,1,6.23,5.66ZM1853.75,1808l3.73-3a31.17,31.17,0,0,0-8.68-7.83,20.44,20.44,0,0,0-10.36-2.86,22.7,22.7,0,0,0-8,1.53c-4.88,1.84-9.41,5.17-13.75,9.73a93.52,93.52,0,0,0-12.6,17.54l-32.88,57.08a9.79,9.79,0,0,0-1.29,4.85,10.27,10.27,0,0,0,1.21,4.8l35.69,67.38a10.91,10.91,0,0,0,4.22,4.37,11.15,11.15,0,0,0,5.49,1.47,10.28,10.28,0,0,0,4.84-1.19,9.68,9.68,0,0,0,3.87-3.73l29.22-50.74c9.37-16.25,14.89-32.75,16.43-49.4q.42-4.54.42-8.93a74.68,74.68,0,0,0-8.67-36l0,0,0,0c-1-1.79-1.93-3.33-2.77-4.66s-1.6-2.41-2.33-3.34h0l-3.73,3-3.73,3c.42.53,1,1.4,1.75,2.54s1.58,2.58,2.55,4.27l4.13-2.36-4.19,2.26c5,9.29,7.53,19.68,7.54,31.46,0,2.61-.13,5.3-.38,8.05-1.4,15.14-6.42,30.28-15.2,45.53L1817,1953.42l-.08.08a1,1,0,0,1-.38.07,1.66,1.66,0,0,1-.76-.2,1.51,1.51,0,0,1-.55-.57l-35.68-67.38a.69.69,0,0,1-.1-.35v-.1l32.89-57.08a83.23,83.23,0,0,1,11.26-15.74c3.63-3.83,7.09-6.21,10.2-7.38a13.11,13.11,0,0,1,4.64-.92,10.87,10.87,0,0,1,5.58,1.58,21.78,21.78,0,0,1,6,5.5h0Z" transform="translate(-34.27 -31.21)"/><path d="M2177.8,1138.33l87.52,339.8a5,5,0,0,1-.48,3.8L2238,1528.49c-1.76,3.06-6.26,3.42-9,.71L2105.8,1407.28c-4.13-4.08-10.87-.86-9.47,4.53l64.47,247.78a5.07,5.07,0,0,1-.47,3.79L2134,1709.81c-1.74,3.07-6.23,3.45-9,.75L1943.7,1532.83a5.41,5.41,0,0,1-1.12-6.54l23.76-41.25c1.8-3.12,6.42-3.41,9.13-.57L2105.34,1621c4.09,4.3,11.09,1,9.59-4.46l-71.45-262.37a5.07,5.07,0,0,1,.46-3.88l26.46-45.92c1.79-3.11,6.39-3.41,9.1-.59l129.31,134.65c4.13,4.31,11.12,1,9.55-4.54l-73.24-256.07a5.06,5.06,0,0,1,.45-3.95l21.65-37.58C2169.65,1132.09,2176.53,1133.4,2177.8,1138.33Z" transform="translate(-34.27 -31.21)"/><path d="M2177.8,1138.33l-4.61,1.18,87.53,339.8h0l0,.15,0,.1-.19.32-26.63,46.24-.08.07a1,1,0,0,1-.4.08,1.52,1.52,0,0,1-1.05-.45L2109.15,1403.9a10.92,10.92,0,0,0-7.69-3.22,10.31,10.31,0,0,0-6.86,2.57,9.39,9.39,0,0,0-3.22,7.14,10.33,10.33,0,0,0,.35,2.63h0l64.48,247.77h0l0,.15,0,.11-.1.18-26.27,46.24-.08.07a.93.93,0,0,1-.4.08,1.47,1.47,0,0,1-1-.44L1947,1529.44a1.06,1.06,0,0,1-.35-.68l0-.09,23.76-41.25.08-.08a.93.93,0,0,1,.4-.08,1.47,1.47,0,0,1,1.08.49l129.87,136.55a11.08,11.08,0,0,0,3.73,2.61,10.68,10.68,0,0,0,4.18.86,10.42,10.42,0,0,0,6.86-2.56,9.59,9.59,0,0,0,2.34-3.11,9.43,9.43,0,0,0,.89-4,10.64,10.64,0,0,0-.37-2.74L2048.07,1353h0l0-.15v-.1l26.46-45.92.08-.08a.91.91,0,0,1,.39-.08,1.51,1.51,0,0,1,1.08.48h0l129.3,134.66a11.34,11.34,0,0,0,3.72,2.58,10.75,10.75,0,0,0,4.16.85,10.36,10.36,0,0,0,6.86-2.57,9.45,9.45,0,0,0,3.23-7.14,10.41,10.41,0,0,0-.41-2.86h0l-73.23-256.08h0l0-.16,0-.1,22.44-39-.79,1.37.09-.09a.72.72,0,0,1,.35-.07h0a1.78,1.78,0,0,1,.94.31,1.14,1.14,0,0,1,.47.67h0l4.61-1.18,4.6-1.19a10.65,10.65,0,0,0-4.17-6.05,11.18,11.18,0,0,0-6.45-2.07,10.31,10.31,0,0,0-4.81,1.17,9.74,9.74,0,0,0-3.87,3.75h0l-21.65,37.59h0a9.53,9.53,0,0,0-1.29,4.85,10.09,10.09,0,0,0,.39,2.78h0l73.23,256.07h0a1.23,1.23,0,0,1,0,.26v0l.12,0-.1-.06,0,0,.12,0-.1-.06,0,0a.83.83,0,0,1-.56.18,1.06,1.06,0,0,1-.45-.09,1.69,1.69,0,0,1-.56-.41l-130.13-135.51.82.85a11,11,0,0,0-7.94-3.4,10.32,10.32,0,0,0-4.87,1.2,9.74,9.74,0,0,0-3.85,3.72L2039.82,1348h0a9.68,9.68,0,0,0-1.3,4.86,10,10,0,0,0,.36,2.66h0l71.45,262.37h0a1.4,1.4,0,0,1,0,.25v0l.11,0-.1-.07v0l.11,0-.1-.07,0,0a1,1,0,0,1-.57.17,1.06,1.06,0,0,1-.45-.09,1.82,1.82,0,0,1-.57-.41l-129.86-136.56a11.05,11.05,0,0,0-8-3.44,10.29,10.29,0,0,0-4.87,1.2,9.68,9.68,0,0,0-3.85,3.72l-23.76,41.25h0a9.77,9.77,0,0,0-1.29,4.85,10.52,10.52,0,0,0,3.2,7.47L2121.64,1714a11,11,0,0,0,7.7,3.17,10.31,10.31,0,0,0,4.9-1.22,9.69,9.69,0,0,0,3.85-3.75l26.38-46.43h0a9.66,9.66,0,0,0,1.26-4.79,10,10,0,0,0-.33-2.54l-.12-.46-64.35-247.32h0a1.26,1.26,0,0,1,0-.22v0l-.1,0,.08.05,0,0-.1,0,.08.05,0,0a.88.88,0,0,1,.55-.18,1.4,1.4,0,0,1,1,.48l123.22,121.91h0a11,11,0,0,0,7.74,3.2,10.33,10.33,0,0,0,4.88-1.2,9.63,9.63,0,0,0,3.84-3.71l27-46.91-.2.34a9.7,9.7,0,0,0,1.29-4.84,10.24,10.24,0,0,0-.32-2.52h0l-87.53-339.8h0Z" transform="translate(-34.27 -31.21)"/><path d="M2229.77,1046l135.33,256.81a5.19,5.19,0,0,1,0,5l-21.26,36.91c-2.14,3.71-8,3.26-10.1-.78L2198.4,1087.21a5.17,5.17,0,0,1,0-5l21.26-36.91C2221.81,1041.55,2227.64,1042,2229.77,1046Z" transform="translate(-34.27 -31.21)"/><path d="M2229.77,1046l-4.21,2.22,135.33,256.81a.81.81,0,0,1,.1.35l0,.1-21.26,36.91-.08.08a1,1,0,0,1-.38.07,1.56,1.56,0,0,1-.76-.21,1.35,1.35,0,0,1-.55-.56L2201.5,1082.89l1.11,2.1a.75.75,0,0,1-.1-.34l0-.1,22.45-39-1.19,2.06.08-.08a.71.71,0,0,1,.38-.07,1.54,1.54,0,0,1,.76.2,1.38,1.38,0,0,1,.55.57h0l4.21-2.22,4.2-2.22a10.94,10.94,0,0,0-4.22-4.38,11.08,11.08,0,0,0-5.5-1.47,10.34,10.34,0,0,0-4.83,1.18,9.71,9.71,0,0,0-3.87,3.74l-21.26,36.91h0a9.58,9.58,0,0,0-1.29,4.85,10.26,10.26,0,0,0,1.19,4.78h0l135.33,256.81a11,11,0,0,0,9.73,5.85,10.23,10.23,0,0,0,4.83-1.18,9.58,9.58,0,0,0,3.87-3.74l21.26-36.9h0a9.61,9.61,0,0,0,1.28-4.84,10.26,10.26,0,0,0-1.19-4.78L2234,1043.83h0Z" transform="translate(-34.27 -31.21)"/><path d="M2540.35,1003.65l-24.28,42.14a5.42,5.42,0,0,1-6.33,2.28l-172.82-51.34c-4.75-1.41-8.6,3-6.34,7.32l98.69,187.41a5.17,5.17,0,0,1,0,5L2408,1233.4c-2.14,3.72-8,3.27-10.1-.77L2262.33,975.5a5.19,5.19,0,0,1,0-5l24.28-42.15a5.42,5.42,0,0,1,6.32-2.29l172.85,50.68c4.75,1.39,8.58-3.05,6.32-7.33l-98.69-186.71a5.22,5.22,0,0,1,0-5l21.26-36.91c2.14-3.71,8-3.27,10.1.77l135.57,257.13A5.19,5.19,0,0,1,2540.35,1003.65Z" transform="translate(-34.27 -31.21)"/><path d="M2540.35,1003.65l-4.13-2.37L2512,1043.41h0l-.08.07a.79.79,0,0,1-.39.09,1.55,1.55,0,0,1-.39-.06l-172.82-51.34a10.88,10.88,0,0,0-3.13-.46,10,10,0,0,0-7,2.83,9.61,9.61,0,0,0-2.94,6.94,10.17,10.17,0,0,0,1.21,4.79l.18.35,98.51,187.05h0a.81.81,0,0,1,.1.35l0,.1h0L2403.88,1231h0l-.08.08a.71.71,0,0,1-.38.07,1.52,1.52,0,0,1-.76-.2,1.38,1.38,0,0,1-.55-.57l-1.11-2.1-134.47-255h0a.78.78,0,0,1-.1-.34l0-.1,24.28-42.16.09-.07a1,1,0,0,1,.39-.08,1.48,1.48,0,0,1,.38.06l172.85,50.68a11.07,11.07,0,0,0,3.1.45,10.05,10.05,0,0,0,7-2.83,9.71,9.71,0,0,0,2.94-6.94,10.3,10.3,0,0,0-1.21-4.8l-98.69-186.71a.81.81,0,0,1-.1-.35l0-.1,21.26-36.91.08-.08a1,1,0,0,1,.38-.07,1.66,1.66,0,0,1,.76.2,1.38,1.38,0,0,1,.55.57l135.57,257.13h0a.69.69,0,0,1,.1.35l0,.1h0l4.13,2.37,4.12,2.37a9.72,9.72,0,0,0,1.29-4.84,10.27,10.27,0,0,0-1.2-4.78L2409,739.27a10.81,10.81,0,0,0-4.22-4.38,11.09,11.09,0,0,0-5.5-1.48,10.31,10.31,0,0,0-4.84,1.19,9.59,9.59,0,0,0-3.86,3.73l-21.26,36.91a9.58,9.58,0,0,0-1.29,4.85,10.19,10.19,0,0,0,1.2,4.79l98.68,186.71h0a.86.86,0,0,1,.12.36l-.07.13a.55.55,0,0,1-.4.13,1.64,1.64,0,0,1-.42-.07l-172.85-50.68a10.73,10.73,0,0,0-3.06-.44,10.3,10.3,0,0,0-4.95,1.24,9.65,9.65,0,0,0-3.77,3.68l-24.28,42.15h0a9.66,9.66,0,0,0-1.29,4.85,10.27,10.27,0,0,0,1.2,4.78l136.31,258.53-.74-1.4a11,11,0,0,0,9.73,5.85,10.34,10.34,0,0,0,4.83-1.18,9.71,9.71,0,0,0,3.87-3.74l23.64-41-2.37,4.12a9.61,9.61,0,0,0,1.28-4.84,10.26,10.26,0,0,0-1.19-4.78l-.37-.7-98.32-186.71h0a.77.77,0,0,1-.11-.35l.06-.13a.61.61,0,0,1,.41-.13,1.77,1.77,0,0,1,.43.07l173.07,51.41-.26-.07a11,11,0,0,0,3.1.45,10.4,10.4,0,0,0,4.94-1.24,9.65,9.65,0,0,0,3.77-3.68h0l24.27-42.13h0Z" transform="translate(-34.27 -31.21)"/><path d="M2550.61,489.08l11.69,22.33a5.18,5.18,0,0,1,0,5l-42.19,73.25a5.19,5.19,0,0,0,0,5L2641,823.92a5.19,5.19,0,0,1,0,5l-21.27,36.91c-2.13,3.71-8,3.26-10.09-.78L2496,649.76c-2.14-4-8-4.49-10.1-.78l-35.08,60.89c-2.14,3.72-8,3.27-10.1-.79l-11.7-22.32a5.2,5.2,0,0,1,0-5l111.43-193.44C2542.65,484.57,2548.49,485,2550.61,489.08Z" transform="translate(-34.27 -31.21)"/><path d="M2550.61,489.08l-4.21,2.21,11.69,22.33a.75.75,0,0,1,.1.34l0,.1L2516,587.31a9.76,9.76,0,0,0-1.29,4.85,10.27,10.27,0,0,0,1.2,4.78l120.89,229.2h0a.69.69,0,0,1,.1.35l0,.1-21.26,36.91-.08.08a.75.75,0,0,1-.38.08,1.56,1.56,0,0,1-.76-.21,1.39,1.39,0,0,1-.54-.56h0L2500.24,647.54a10.81,10.81,0,0,0-4.22-4.38,11,11,0,0,0-5.5-1.47,10.23,10.23,0,0,0-4.83,1.18,9.65,9.65,0,0,0-3.87,3.74l-35.08,60.89-.08.08a.79.79,0,0,1-.38.08,1.68,1.68,0,0,1-.76-.21,1.38,1.38,0,0,1-.55-.57l-11.69-22.33a.78.78,0,0,1-.1-.34l0-.1,111.43-193.44.08-.09a.94.94,0,0,1,.38-.07,1.56,1.56,0,0,1,.76.21,1.32,1.32,0,0,1,.55.57l4.21-2.21,4.21-2.2a10.8,10.8,0,0,0-4.22-4.4,11.05,11.05,0,0,0-5.51-1.48,10.26,10.26,0,0,0-4.84,1.18,9.77,9.77,0,0,0-3.87,3.74L2425,679.36a9.67,9.67,0,0,0-1.28,4.85,10.13,10.13,0,0,0,1.18,4.75l11.69,22.33a10.89,10.89,0,0,0,4.23,4.4,11,11,0,0,0,5.51,1.48,10.34,10.34,0,0,0,4.83-1.18,9.71,9.71,0,0,0,3.87-3.74l35.08-60.89.08-.09a1,1,0,0,1,.38-.07,1.56,1.56,0,0,1,.76.21,1.32,1.32,0,0,1,.55.57L2606,868.36l-.55-1.05a10.88,10.88,0,0,0,4.22,4.38,11,11,0,0,0,5.5,1.47A10.26,10.26,0,0,0,2620,872a9.77,9.77,0,0,0,3.87-3.74l21.26-36.91h0a9.76,9.76,0,0,0,1.29-4.85,10.27,10.27,0,0,0-1.2-4.78L2524.3,592.5a.78.78,0,0,1-.1-.34l0-.1,42.19-73.25h0a9.62,9.62,0,0,0,1.29-4.84,10.25,10.25,0,0,0-1.18-4.75l-11.7-22.33Z" transform="translate(-34.27 -31.21)"/><path d="M2620.48,419.72l36.69,69.35c2.13,4,7.95,4.48,10.09.77l48.27-83.79c2.13-3.7,7.93-3.27,10.08.75l11.61,21.71a5.2,5.2,0,0,1,0,5.07L2681.69,530a5.17,5.17,0,0,0,0,5l38.19,72.67c2.13,4,8,4.49,10.1.78l55.49-96.33c2.14-3.71,8-3.26,10.11.79l11.69,22.33a5.2,5.2,0,0,1,0,5l-86.89,150.85c-2.14,3.71-8,3.26-10.1-.78L2574.67,433.27a5.22,5.22,0,0,1,0-5l86.87-150.82c2.14-3.71,8-3.26,10.11.8l11.69,22.32a5.22,5.22,0,0,1,0,5l-62.86,109.11A5.21,5.21,0,0,0,2620.48,419.72Z" transform="translate(-34.27 -31.21)"/><path d="M2620.48,419.72l-4.2,2.22L2653,491.3a10.91,10.91,0,0,0,4.22,4.37,11.22,11.22,0,0,0,5.5,1.47,10.34,10.34,0,0,0,4.83-1.18,9.71,9.71,0,0,0,3.87-3.74l48.27-83.79.08-.08a.75.75,0,0,1,.38-.08,1.52,1.52,0,0,1,.75.21,1.29,1.29,0,0,1,.55.56L2733,430.76a.69.69,0,0,1,.1.35l0,.1h0l-55.55,96.43a9.79,9.79,0,0,0-1.29,4.85,10.27,10.27,0,0,0,1.2,4.78h0l38.19,72.67a11,11,0,0,0,9.73,5.86,10.23,10.23,0,0,0,4.83-1.18,9.71,9.71,0,0,0,3.87-3.74l55.49-96.32.08-.08a.79.79,0,0,1,.38-.08,1.56,1.56,0,0,1,.76.21,1.38,1.38,0,0,1,.55.57L2803,537.5a.75.75,0,0,1,.1.34l0,.11h0l-86.9,150.85-.08.09a.94.94,0,0,1-.38.07,1.56,1.56,0,0,1-.76-.21,1.39,1.39,0,0,1-.54-.56L2578.88,431.05a.81.81,0,0,1-.1-.35l0-.09,86.87-150.82.08-.08a.79.79,0,0,1,.38-.08,1.71,1.71,0,0,1,.77.21,1.42,1.42,0,0,1,.54.57l11.69,22.33a.66.66,0,0,1,.1.34l0,.11h0L2616.36,412.3a9.76,9.76,0,0,0-1.29,4.85,10.23,10.23,0,0,0,1.21,4.79l4.2-2.22,4.2-2.23a.78.78,0,0,1-.1-.34l0-.11,62.86-109.11h0a9.76,9.76,0,0,0,1.29-4.85,10.17,10.17,0,0,0-1.19-4.75L2675.87,276a10.83,10.83,0,0,0-4.23-4.4,11,11,0,0,0-5.51-1.48,10.34,10.34,0,0,0-4.83,1.18,9.71,9.71,0,0,0-3.87,3.74l-86.87,150.81h0a9.58,9.58,0,0,0-1.29,4.85,10.26,10.26,0,0,0,1.19,4.78L2706,692.61a10.88,10.88,0,0,0,4.22,4.38,11,11,0,0,0,5.5,1.47,10.26,10.26,0,0,0,4.84-1.18,9.71,9.71,0,0,0,3.87-3.74l86.9-150.85h0a9.69,9.69,0,0,0,1.28-4.84,10.31,10.31,0,0,0-1.18-4.75l-11.69-22.33a10.89,10.89,0,0,0-4.23-4.4,11.05,11.05,0,0,0-5.51-1.48,10.34,10.34,0,0,0-4.83,1.18,9.65,9.65,0,0,0-3.87,3.74l-55.49,96.32-.08.09a1,1,0,0,1-.38.07,1.56,1.56,0,0,1-.76-.21,1.32,1.32,0,0,1-.55-.57l-38.36-73,.16.32a.71.71,0,0,1-.09-.34l0-.1L2741.36,436h0a9.72,9.72,0,0,0,1.29-4.84,10.3,10.3,0,0,0-1.23-4.84l-11.62-21.72a11,11,0,0,0-4.22-4.34,11.08,11.08,0,0,0-5.47-1.45,10.26,10.26,0,0,0-4.84,1.18,9.77,9.77,0,0,0-3.87,3.74l-48.26,83.79-.08.08a1,1,0,0,1-.38.07,1.63,1.63,0,0,1-.76-.2,1.38,1.38,0,0,1-.55-.57l-36.68-69.36Z" transform="translate(-34.27 -31.21)"/><path d="M2809.5,56.16q24.73-8.1,43.25,15.32a111.5,111.5,0,0,1,8.66,13.87q13.64,26,15.43,64.37,1.69,36.12-12.12,75.53a5.78,5.78,0,0,0,3.66,7.08l88.67,34.31c3.35,1.3,4.91,5.08,3.27,7.93l-27.6,47.91a5.49,5.49,0,0,1-7,2l-86-36.45a5.51,5.51,0,0,0-7,2L2815,320.81a5.19,5.19,0,0,0,0,5l54,102.26a5.16,5.16,0,0,1,0,5l-21.26,36.91c-2.13,3.71-8,3.26-10.09-.78L2702.28,212.47a5.22,5.22,0,0,1,0-5l56.95-98.86Q2784.76,64.26,2809.5,56.16Zm17,68.23q-10.62-13.42-23.11-9.16t-26.1,27.89l-29.24,50.76a5.19,5.19,0,0,0,0,5l42.15,79.88c2.13,4,8,4.49,10.09.78l25.57-44.39q15.55-27,17-53.25t-10-47.22A59.14,59.14,0,0,0,2826.54,124.39Z" transform="translate(-34.27 -31.21)"/><path d="M2809.5,56.16l1.48,4.52a34.69,34.69,0,0,1,10.82-1.85,28.13,28.13,0,0,1,14,3.74A45.91,45.91,0,0,1,2849,74.43a57.69,57.69,0,0,1,3.47,5.07c1.38,2.22,3,4.94,4.77,8.16l4.15-2.31-4.21,2.21c8.68,16.54,13.72,37.3,14.89,62.38q.18,3.84.18,7.72,0,31.59-12,66h0a9.67,9.67,0,0,0-.55,3.21,10.39,10.39,0,0,0,2,6,11.1,11.1,0,0,0,5,3.89l88.67,34.3a1.48,1.48,0,0,1,.7.54,1,1,0,0,1,.19.49l0,.1h0l-27.6,47.92-.08.07a.84.84,0,0,1-.39.08,1.49,1.49,0,0,1-.55-.11l-86-36.46a10.93,10.93,0,0,0-4.26-.87,10.41,10.41,0,0,0-4.93,1.23,9.79,9.79,0,0,0-3.79,3.69l-17.68,30.69a9.79,9.79,0,0,0-1.29,4.85,10.2,10.2,0,0,0,1.21,4.79l54,102.26a.78.78,0,0,1,.1.34l0,.11-21.26,36.9-.08.08a.75.75,0,0,1-.38.08,1.56,1.56,0,0,1-.76-.21,1.44,1.44,0,0,1-.55-.57L2706.49,210.25a.82.82,0,0,1-.1-.34l0-.1.2-.34,56.75-98.53C2771.73,96.41,2780,85,2788,76.6s15.73-13.56,23-15.92l-1.48-4.52L2808,51.64c-9.24,3-18.14,9.27-26.88,18.38s-17.37,21.17-26,36.18l-56.95,98.86h0a9.69,9.69,0,0,0-1.29,4.86,10.27,10.27,0,0,0,1.2,4.78L2833.41,471.5a10.88,10.88,0,0,0,4.22,4.38,11,11,0,0,0,5.5,1.47,10.26,10.26,0,0,0,4.84-1.18,9.77,9.77,0,0,0,3.87-3.74l21.4-37.15-.14.24a9.65,9.65,0,0,0,1.28-4.85,10.18,10.18,0,0,0-1.2-4.78l-54-102.26h0a.64.64,0,0,1-.1-.34l0-.1,17.68-30.69.08-.07a.82.82,0,0,1,.39-.09,1.34,1.34,0,0,1,.55.12l86,36.45a10.85,10.85,0,0,0,4.27.88,10.24,10.24,0,0,0,4.92-1.24,9.7,9.7,0,0,0,3.79-3.68l27.6-47.92h0a9.67,9.67,0,0,0,1.28-4.84,10.34,10.34,0,0,0-1.91-6,11.09,11.09,0,0,0-5.06-3.94l-88.67-34.31a1.53,1.53,0,0,1-.71-.54.81.81,0,0,1-.18-.46v-.06h0q12.52-35.75,12.57-69.17,0-4.09-.19-8.16c-1.22-26.09-6.47-48.24-16-66.36l0,0,0-.07c-1.85-3.32-3.51-6.17-5-8.58a65.48,65.48,0,0,0-4.08-5.93,55.17,55.17,0,0,0-16-14.25,37.51,37.51,0,0,0-18.66-5A44.14,44.14,0,0,0,2808,51.64Zm17,68.23,3.73-3a35.91,35.91,0,0,0-9.64-8.79,22.12,22.12,0,0,0-11.31-3.21,22.72,22.72,0,0,0-7.42,1.29h0c-5.19,1.79-10,5.34-14.7,10.36a106.91,106.91,0,0,0-14,19.66L2744,191.5a9.79,9.79,0,0,0-1.29,4.85,10.34,10.34,0,0,0,1.2,4.79L2786,281a10.88,10.88,0,0,0,4.22,4.38,11,11,0,0,0,5.5,1.47,10.23,10.23,0,0,0,4.83-1.18,9.71,9.71,0,0,0,3.87-3.74L2830,237.56c10.67-18.51,16.63-37,17.65-55.36.11-2.06.17-4.11.17-6.13a90,90,0,0,0-10.69-43.62l-4.18,2.27,4.26-2.13a64.64,64.64,0,0,0-7-11.15l-3.73,3-3.73,3a54.65,54.65,0,0,1,5.91,9.51l0,.07,0,.07c6.35,11.69,9.53,24.62,9.53,39.08,0,1.85-.05,3.71-.15,5.61-.93,16.64-6.32,33.65-16.39,51.13l-25.57,44.39-.08.08a.79.79,0,0,1-.38.08,1.56,1.56,0,0,1-.76-.21,1.44,1.44,0,0,1-.55-.57L2752.3,196.7a.69.69,0,0,1-.1-.35l0-.1,29.23-50.75a97.6,97.6,0,0,1,12.69-17.91c4-4.29,7.7-6.8,10.83-7.86h0a13.42,13.42,0,0,1,4.35-.77,12.42,12.42,0,0,1,6.46,1.88,26.54,26.54,0,0,1,7,6.5Z" transform="translate(-34.27 -31.21)"/></svg>