<svg xmlns="http://www.w3.org/2000/svg" width="2920.32" height="6266.54" viewBox="0 0 2920.32 6266.54"><defs><style>.a{font-size:12px;font-family:MyriadPro-Regular, Myriad Pro;}.b{letter-spacing:-0.01em;}.c{letter-spacing:-0.01em;}.d{letter-spacing:0em;}</style></defs><text class="a" transform="translate(872.36 10.04)"><tspan class="b">L</tspan><tspan x="5.5" y="0">o</tspan><tspan class="c" x="12.08" y="0">r</tspan><tspan class="d" x="15.89" y="0">em ipsum</tspan></text><path d="M1127.72,137.17Q1158.44,153.54,1175,183t16.55,67.33q0,37.53-16.74,67t-47.46,46.17c-20.49,11.17-69,16.51-69,16.51-1.18.13-3.13.23-4.32.23H955.67A2.17,2.17,0,0,1,953.5,378V123a2.18,2.18,0,0,1,2.17-2.17H1054c1.19,0,3.14.11,4.32.23C1058.31,121,1107.24,126.25,1127.72,137.17Zm-27.41,162.08q18-17.29,18-48.94,0-32-18-49.49c-12-11.65-47.53-17.15-47.53-17.15a34.44,34.44,0,0,0-4.31-.33h-20.69a2.17,2.17,0,0,0-2.16,2.17V314.38a2.16,2.16,0,0,0,2.16,2.16h20.69a34.44,34.44,0,0,0,4.31-.33S1088.29,310.78,1100.31,299.25Z" transform="translate(-39.84 3383.28)"/><path d="M1290.86,178.56a2.16,2.16,0,0,0-2.16,2.16v38a2.16,2.16,0,0,0,2.16,2.16h78.46a2.17,2.17,0,0,1,2.16,2.17v50.49a2.17,2.17,0,0,1-2.16,2.17h-78.46a2.16,2.16,0,0,0-2.16,2.16v42.4a2.17,2.17,0,0,0,2.16,2.17h89.5a2.16,2.16,0,0,1,2.16,2.16V378a2.16,2.16,0,0,1-2.16,2.16H1218.74a2.16,2.16,0,0,1-2.16-2.16V123a2.17,2.17,0,0,1,2.16-2.17h161.62a2.17,2.17,0,0,1,2.16,2.17V176.4a2.16,2.16,0,0,1-2.16,2.16Z" transform="translate(-39.84 3383.28)"/><path d="M1661.1,120.79a1.45,1.45,0,0,1,1.46,2l-88,255.31a3.26,3.26,0,0,1-2.87,2h-88a3.26,3.26,0,0,1-2.87-2l-88.37-255.31a1.45,1.45,0,0,1,1.46-2h72.94a3.13,3.13,0,0,1,2.81,2.07L1527.21,306c.36,1.14.94,1.14,1.29,0l57.21-183.15a3.14,3.14,0,0,1,2.81-2.07Z" transform="translate(-39.84 3383.28)"/><path d="M1752.63,178.56a2.17,2.17,0,0,0-2.17,2.16v38a2.17,2.17,0,0,0,2.17,2.16h78.46a2.17,2.17,0,0,1,2.16,2.17v50.49a2.17,2.17,0,0,1-2.16,2.17h-78.46a2.17,2.17,0,0,0-2.17,2.16v42.4a2.18,2.18,0,0,0,2.17,2.17h89.49a2.17,2.17,0,0,1,2.17,2.16V378a2.17,2.17,0,0,1-2.17,2.16H1680.51a2.16,2.16,0,0,1-2.16-2.16V123a2.17,2.17,0,0,1,2.16-2.17h161.61a2.18,2.18,0,0,1,2.17,2.17V176.4a2.17,2.17,0,0,1-2.17,2.16Z" transform="translate(-39.84 3383.28)"/><path d="M1944.73,322.84a2.17,2.17,0,0,0,2.17,2.16h76.25a2.17,2.17,0,0,1,2.16,2.17V378a2.16,2.16,0,0,1-2.16,2.16H1874.78a2.16,2.16,0,0,1-2.16-2.16V123a2.17,2.17,0,0,1,2.16-2.17h67.79a2.17,2.17,0,0,1,2.16,2.17Z" transform="translate(-39.84 3383.28)"/><path d="M2103.32,365.66a127.6,127.6,0,0,1-48.39-47.46q-17.85-30.36-17.84-68.63T2054.93,181a126.21,126.21,0,0,1,48.39-47.28q30.54-16.92,67-16.92,36.78,0,67.15,16.92a125.22,125.22,0,0,1,48,47.28q17.67,30.36,17.66,68.62t-17.66,68.63a126.19,126.19,0,0,1-48.2,47.46q-30.54,17.11-67,17.11T2103.32,365.66Zm110.57-67.89q16-18,16-48.2,0-30.9-16-48.75T2170.29,183q-28,0-43.79,17.84t-15.82,48.75q0,30.56,15.82,48.39t43.79,17.84Q2197.88,315.8,2213.89,297.77Z" transform="translate(-39.84 3383.28)"/><path d="M2522.22,250.13q-10.86,19.31-32.75,30.9c-14.59,7.73-51.38,11.38-51.38,11.38-1.18.12-3.13.21-4.32.21h-31.36a2.17,2.17,0,0,0-2.16,2.17V378a2.17,2.17,0,0,1-2.17,2.16h-67.79a2.16,2.16,0,0,1-2.16-2.16V123a2.17,2.17,0,0,1,2.16-2.17h103.48c1.19,0,3.14.09,4.32.21,0,0,36.42,3.47,51,10.83s25.57,17.54,32.93,30.54,11,28,11,44.89A86.08,86.08,0,0,1,2522.22,250.13Zm-62.73-42.87c0-18.89-28.47-27.69-28.47-27.69a17.4,17.4,0,0,0-4.24-.64h-24.37a2.16,2.16,0,0,0-2.16,2.16v52a2.16,2.16,0,0,0,2.16,2.16h24.37a17.39,17.39,0,0,0,4.24-.63S2459.49,225.9,2459.49,207.26Z" transform="translate(-39.84 3383.28)"/><path d="M2629.06,178.56a2.16,2.16,0,0,0-2.16,2.16v38a2.16,2.16,0,0,0,2.16,2.16h78.46a2.18,2.18,0,0,1,2.17,2.17v50.49a2.18,2.18,0,0,1-2.17,2.17h-78.46a2.16,2.16,0,0,0-2.16,2.16v42.4a2.17,2.17,0,0,0,2.16,2.17h89.5a2.16,2.16,0,0,1,2.16,2.16V378a2.16,2.16,0,0,1-2.16,2.16H2556.94a2.16,2.16,0,0,1-2.16-2.16V123a2.17,2.17,0,0,1,2.16-2.17h161.62a2.17,2.17,0,0,1,2.16,2.17V176.4a2.16,2.16,0,0,1-2.16,2.16Z" transform="translate(-39.84 3383.28)"/><path d="M2882.57,380.19a4,4,0,0,1-3.19-1.9l-49.46-91.86a4,4,0,0,0-3.19-1.9h-3.4a2.16,2.16,0,0,0-2.16,2.16V378a2.17,2.17,0,0,1-2.17,2.16h-67.78a2.17,2.17,0,0,1-2.17-2.16V123a2.18,2.18,0,0,1,2.17-2.17h109.36c1.19,0,3.14.09,4.32.21,0,0,36.36,3.41,50.83,10.65s25.39,17.17,32.75,29.8,11,26.8,11,42.5q0,26.49-14.54,46.54c-9.69,13.38-40.53,27.61-40.53,27.61a1.94,1.94,0,0,0-.88,2.78l56.34,97.44c.59,1,.1,1.87-1.09,1.87Zm-61.4-147.13a2.16,2.16,0,0,0,2.16,2.16h31.37a38.49,38.49,0,0,0,4.3-.29s15-2,19.94-6.7,7.36-11.4,7.36-20.23q0-12.51-7.55-19.69c-5-4.78-19.75-6.87-19.75-6.87a36.4,36.4,0,0,0-4.3-.3h-31.37a2.16,2.16,0,0,0-2.16,2.16Z" transform="translate(-39.84 3383.28)"/><path d="M413.27,120.79a1.62,1.62,0,0,1,1.65,2.1l-62.63,255.2a2.9,2.9,0,0,1-2.68,2.1H265.27a2.82,2.82,0,0,1-2.64-2.11L227.88,223.35c-.26-1.16-.69-1.16-.95,0L191.47,378.08a2.85,2.85,0,0,1-2.65,2.11H104.47a2.89,2.89,0,0,1-2.67-2.1L39.9,122.9a1.63,1.63,0,0,1,1.65-2.11h73.68a2.67,2.67,0,0,1,2.53,2.14L147.2,296c.2,1.17.58,1.18.85,0L187.92,122.9a2.86,2.86,0,0,1,2.65-2.11h74.78A2.84,2.84,0,0,1,268,122.9l38.79,171.66c.26,1.16.64,1.15.84,0l29.44-171.61a2.67,2.67,0,0,1,2.53-2.14Z" transform="translate(-39.84 3383.28)"/><path d="M521.72,178.56a2.16,2.16,0,0,0-2.16,2.16v38a2.16,2.16,0,0,0,2.16,2.16h78.46a2.17,2.17,0,0,1,2.16,2.17v50.49a2.17,2.17,0,0,1-2.16,2.17H521.72a2.16,2.16,0,0,0-2.16,2.16v42.4a2.17,2.17,0,0,0,2.16,2.17h89.5a2.16,2.16,0,0,1,2.16,2.16V378a2.16,2.16,0,0,1-2.16,2.16H449.6a2.16,2.16,0,0,1-2.16-2.16V123a2.17,2.17,0,0,1,2.16-2.17H611.22a2.17,2.17,0,0,1,2.16,2.17V176.4a2.16,2.16,0,0,1-2.16,2.16Z" transform="translate(-39.84 3383.28)"/><path d="M852.36,269.63a63.78,63.78,0,0,1,13.43,39.92q0,33.12-22.81,51.88c-15.21,12.51-61.88,18.49-61.88,18.49a41.38,41.38,0,0,1-4.31.27H652.71a2.17,2.17,0,0,1-2.17-2.16V123a2.17,2.17,0,0,1,2.17-2.17h120a41.74,41.74,0,0,1,4.32.27s45.13,5.62,60.21,17.39,22.63,28.34,22.63,49.68q0,22.82-12,38.08c-8,10.18-29.84,19.91-29.84,19.91-1.09.48-1.08,1.24,0,1.69C818.12,247.81,843.4,258,852.36,269.63Zm-129.7-48a2.17,2.17,0,0,0,2.16,2.17h32.1a19.08,19.08,0,0,0,4.25-.58s25.14-6.9,25.14-21.87c0-15.45-25.14-22.59-25.14-22.59a19.09,19.09,0,0,0-4.25-.59h-32.1a2.17,2.17,0,0,0-2.16,2.17Zm69.17,77.6q0-11.78-7.17-18c-4.79-4.17-18.28-6-18.28-6a38.83,38.83,0,0,0-4.31-.29H724.82a2.17,2.17,0,0,0-2.16,2.17V319.9a2.16,2.16,0,0,0,2.16,2.16h37.62a19.08,19.08,0,0,0,4.25-.58S791.83,314.46,791.83,299.25Z" transform="translate(-39.84 3383.28)"/><path d="M1682.79,1944.67l109.79-197.16a16.29,16.29,0,0,0-.14-16.12L1031.27,419.65a16.31,16.31,0,0,0-14.12-8.13L130,411.7c-31.57,0-51.29,34.18-35.5,61.51L1474.8,2862.76c15.78,27.33,55.24,27.32,71,0l164.46-285a16.3,16.3,0,0,0,0-16.31l-130.47-225.89c-7.42-12.84,4.75-28.12,18.92-23.75l212.62,65.44a16.32,16.32,0,0,0,18.93-7.44L1996,2082.59a16.32,16.32,0,0,0-9.33-23.75l-294.45-90.64A16.31,16.31,0,0,1,1682.79,1944.67ZM1299.6,1850.5,686.53,789.12a16.31,16.31,0,0,1,14.24-24.47l110.41.82a16.29,16.29,0,0,1,14,8.12L1383,1735a16.29,16.29,0,0,1,.14,16.12L1328,1850.27A16.31,16.31,0,0,1,1299.6,1850.5Z" transform="translate(-39.84 3383.28)"/><path d="M2925.09,472.64,2086.67,1925.5a16.32,16.32,0,0,1-28.27,0L1201,435.93a16.31,16.31,0,0,1,14.14-24.45l373-.06a16.3,16.3,0,0,1,14.14,8.17L2064.13,1222a16.32,16.32,0,0,0,28.28,0l63.71-110.66a16.33,16.33,0,0,0,0-16.3L1775.37,435.84a16.31,16.31,0,0,1,14.12-24.47l373.3-.08a16.32,16.32,0,0,1,14.13,8.16l174.9,302.79a16.32,16.32,0,0,0,28.27,0l58.53-101.68a16.31,16.31,0,0,0,0-16.3l-97.34-168.52a16.31,16.31,0,0,1,14.12-24.47l203.75,0,179,0,151.47,0C2921.13,411.14,2940.87,445.3,2925.09,472.64Z" transform="translate(-39.84 3383.28)"/></svg>