<svg xmlns="http://www.w3.org/2000/svg" width="2986.17" height="2822.92" viewBox="0 0 2986.17 2822.92"><defs><style>.a,.d{font-size:345.28px;font-family:Poppins-ExtraBold, Poppins;font-weight:800;}.b{letter-spacing:0.01em;}.c,.d{letter-spacing:0.01em;}.e{letter-spacing:0em;}</style></defs><path d="M1028.07,295.58l-883.38,1c-40.78,0-66.22,44.22-45.79,79.52L1479.38,2760.88c20.43,35.3,71.41,35.24,91.76-.1l158.62-275.46a8.87,8.87,0,0,0,0-8.86l-65-112.26a8.86,8.86,0,0,1,7.7-13.3l129.23.43a8.85,8.85,0,0,0,7.76-4.52c66.36-118.57,136.33-234.89,202.87-353.34a8.87,8.87,0,0,0-8-13.2c-127.65,3.81-258.52,5.59-386.18,9.39a8.85,8.85,0,0,1-7.93-13.29l195.28-337.75a8.84,8.84,0,0,0,0-8.87L1035.75,300A8.88,8.88,0,0,0,1028.07,295.58ZM1389,1638.72l-64.39,111.38a8.86,8.86,0,0,1-15.34,0L682.19,666.8a8.86,8.86,0,0,1,7.72-13.3l129.35.84a8.85,8.85,0,0,1,7.61,4.42L1389,1629.84A8.89,8.89,0,0,1,1389,1638.72Z" transform="translate(-6.92 35.6)" fill="#fff"/><path d="M2946.18,372.86l-844.6,1466.76a8.86,8.86,0,0,1-15.35,0L1203.09,308.67a8.86,8.86,0,0,1,7.66-13.29l395.48-.46a8.87,8.87,0,0,1,7.68,4.43L2091.35,1127a8.86,8.86,0,0,0,15.36,0L2180,999.48a8.83,8.83,0,0,0,0-8.85L1784.81,308a8.86,8.86,0,0,1,7.66-13.3l395.81-.45a8.87,8.87,0,0,1,7.68,4.42l186.32,321.87a8.86,8.86,0,0,0,15.35,0l68-118.4a8.85,8.85,0,0,0,0-8.85L2358,307.36a8.86,8.86,0,0,1,7.66-13.3l219.65-.25,181.28-.21,133.62-.15C2941,293.4,2966.53,337.52,2946.18,372.86Z" transform="translate(-6.92 35.6)" fill="#fff"/><text fill="#fff" class="a" transform="translate(991.88 295.04)"><tspan class="b">D</tspan><tspan x="256.54" y="0">E</tspan></text><text fill="#fff" class="a" transform="translate(1441.08 295.04)">V</text><text fill="#fff" class="a" transform="translate(1702.45 295.04)"><tspan class="c">E</tspan><tspan x="192.32" y="0">L</tspan></text><text fill="#fff" class="a" transform="translate(2067.4 295.04)">O</text><text fill="#fff" class="a" transform="translate(2342.58 295.04)">P</text><text fill="#fff" class="a" transform="translate(2565.28 295.04)">E</text><text fill="#fff" class="a" transform="translate(2757.94 295.04)">R</text><text fill="#fff" class="d" transform="translate(0 295.04)">W<tspan class="e" x="374.62" y="0">E</tspan></text><text fill="#fff" class="a" transform="translate(566.94 295.04)">B</text></svg>